<svg width="56" height="56" viewBox="0 0 56 56" fill="none" xmlns="http://www.w3.org/2000/svg">
<circle cx="28" cy="28" r="27.5" stroke="#E72222" stroke-dasharray="5 5"/>
<path d="M11.184 28.952H15.728V27.96H11.184V28.952ZM17.4433 33H23.5393V32.008H21.0593V21.752H20.0353L17.4913 24.28L18.1953 24.984L19.3953 23.8C19.8433 23.352 19.9553 23.128 19.9553 23.128H19.9873C19.9873 23.128 19.9713 23.432 19.9713 23.752V32.008H17.4433V33ZM25.5021 32.728C26.1581 33.048 26.8781 33.192 27.5661 33.192C31.0541 33.192 32.5101 29.656 32.5101 26.84C32.5101 23.8 30.8941 21.56 28.4621 21.56C26.4941 21.56 24.9261 22.984 24.9261 25.304C24.9261 27.448 26.3661 28.952 28.4301 28.952C29.5821 28.952 30.7181 28.44 31.2781 27.64H31.3101C31.1021 29.832 29.9181 32.152 27.5661 32.152C26.9261 32.152 26.2861 31.944 25.9341 31.752L25.5021 32.728ZM28.5901 27.96C27.0541 27.96 26.0461 26.904 26.0461 25.304C26.0461 23.752 26.9421 22.616 28.4781 22.616C30.1581 22.616 31.3261 24.536 31.3261 26.04C31.3261 26.952 30.1101 27.96 28.5901 27.96ZM36.62 26.008C37.852 26.008 38.876 25.016 38.876 23.784C38.876 22.568 37.852 21.56 36.62 21.56C35.372 21.56 34.38 22.568 34.38 23.784C34.38 25.016 35.372 26.008 36.62 26.008ZM34.476 33H35.628L44.188 21.752H43.036L34.476 33ZM36.62 25.112C35.884 25.112 35.324 24.52 35.324 23.784C35.324 23.064 35.884 22.456 36.62 22.456C37.356 22.456 37.916 23.064 37.916 23.784C37.916 24.52 37.356 25.112 36.62 25.112ZM39.788 30.984C39.788 32.2 40.78 33.192 42.028 33.192C43.276 33.192 44.284 32.2 44.284 30.984C44.284 29.752 43.276 28.744 42.028 28.744C40.78 28.744 39.788 29.752 39.788 30.984ZM40.732 30.968C40.732 30.248 41.292 29.64 42.028 29.64C42.764 29.64 43.34 30.248 43.34 30.968C43.34 31.704 42.764 32.296 42.028 32.296C41.292 32.296 40.732 31.704 40.732 30.968Z" fill="black"/>
</svg>
