<svg width="40" height="36" viewBox="0 0 40 36" fill="none" xmlns="http://www.w3.org/2000/svg">
<path d="M16.5 35.1641C16.0302 35.1641 15.5772 34.9939 15.2243 34.6847C13.8911 33.519 12.6059 32.4236 11.4719 31.4573L11.4661 31.4522C8.14147 28.6191 5.27054 26.1724 3.273 23.7622C1.04006 21.0677 0 18.513 0 15.7222C0 13.0106 0.929785 10.509 2.6179 8.67789C4.32616 6.82511 6.67013 5.80469 9.21879 5.80469C11.1237 5.80469 12.8682 6.40692 14.4037 7.59452C15.1787 8.19398 15.8811 8.92764 16.5 9.78341C17.1191 8.92764 17.8213 8.19398 18.5965 7.59452C20.132 6.40692 21.8765 5.80469 23.7814 5.80469C26.3298 5.80469 28.674 6.82511 30.3823 8.67789C32.0704 10.509 32.9999 13.0106 32.9999 15.7222C32.9999 18.513 31.9601 21.0677 29.7272 23.7619C27.7296 26.1724 24.859 28.6188 21.5349 31.4517C20.3989 32.4195 19.1116 33.5168 17.7754 34.6852C17.4227 34.9939 16.9695 35.1641 16.5 35.1641ZM9.21879 7.73778C7.21647 7.73778 5.37704 8.5369 4.03889 9.9881C2.68084 11.4612 1.93283 13.4975 1.93283 15.7222C1.93283 18.0694 2.80522 20.1687 4.76121 22.5288C6.65175 24.8101 9.46377 27.2064 12.7196 29.9812L12.7257 29.9862C13.8639 30.9563 15.1543 32.056 16.4972 33.2302C17.8482 32.0537 19.1405 30.9522 20.281 29.9807C23.5367 27.2059 26.3484 24.8101 28.239 22.5288C30.1947 20.1687 31.0671 18.0694 31.0671 15.7222C31.0671 13.4975 30.3191 11.4612 28.9611 9.9881C27.6231 8.5369 25.7835 7.73778 23.7814 7.73778C22.3146 7.73778 20.9679 8.20406 19.7788 9.12352C18.7191 9.94328 17.9809 10.9796 17.5481 11.7047C17.3255 12.0775 16.9338 12.3001 16.5 12.3001C16.0662 12.3001 15.6744 12.0775 15.4519 11.7047C15.0193 10.9796 14.2811 9.94328 13.2212 9.12352C12.0321 8.20406 10.6854 7.73778 9.21879 7.73778Z" fill="#956D84"/>
<circle cx="32" cy="8" r="8" fill="#956D84"/>
<path d="M33.8 6.768C33.8 7.04 33.7493 7.31467 33.648 7.592C33.552 7.86933 33.4267 8.14133 33.272 8.408C33.1227 8.67467 32.9547 8.93333 32.768 9.184C32.5867 9.42933 32.408 9.656 32.232 9.864L31.808 10.192V10.232L32.384 10.12H33.92V11H30.552V10.464C30.68 10.3307 30.824 10.176 30.984 10C31.144 9.81867 31.304 9.62933 31.464 9.432C31.6293 9.22933 31.7893 9.02133 31.944 8.808C32.0987 8.59467 32.2373 8.38133 32.36 8.168C32.4827 7.94933 32.5787 7.73867 32.648 7.536C32.7227 7.33333 32.76 7.14133 32.76 6.96C32.76 6.74133 32.696 6.56267 32.568 6.424C32.4453 6.28 32.248 6.208 31.976 6.208C31.8053 6.208 31.6293 6.24533 31.448 6.32C31.272 6.38933 31.1227 6.48 31 6.592L30.584 5.856C30.792 5.68533 31.0267 5.54933 31.288 5.448C31.5547 5.34133 31.8667 5.288 32.224 5.288C32.4533 5.288 32.664 5.32 32.856 5.384C33.048 5.448 33.2133 5.54133 33.352 5.664C33.4907 5.78667 33.6 5.94133 33.68 6.128C33.76 6.30933 33.8 6.52267 33.8 6.768Z" fill="white"/>
</svg>
