<svg width="29" height="20" viewBox="0 0 29 20" fill="none" xmlns="http://www.w3.org/2000/svg">
<path d="M9 20C8.74374 20 8.49669 19.9072 8.30415 19.7388C7.577 19.1035 6.87593 18.5065 6.2574 17.9799L6.25424 17.9772C4.44081 16.4332 2.87485 15.0998 1.78528 13.7863C0.567307 12.3179 0 10.9257 0 9.40473C0 7.92701 0.507156 6.56372 1.42795 5.56581C2.35973 4.5561 3.63826 4 5.02844 4C6.06747 4 7.01903 4.3282 7.8566 4.97541C8.2793 5.3021 8.66245 5.70192 9 6.16828C9.33769 5.70192 9.7207 5.3021 10.1435 4.97541C10.9811 4.3282 11.9327 4 12.9717 4C14.3617 4 15.6404 4.5561 16.5722 5.56581C17.493 6.56372 18 7.92701 18 9.40473C18 10.9257 17.4328 12.3179 16.2149 13.7862C15.1253 15.0998 13.5595 16.433 11.7463 17.9769C11.1267 18.5043 10.4245 19.1023 9.69571 19.739C9.50331 19.9072 9.25612 20 9 20ZM5.02844 5.05348C3.93626 5.05348 2.93294 5.48897 2.20303 6.27983C1.46228 7.08263 1.05428 8.19236 1.05428 9.40473C1.05428 10.6839 1.53012 11.8279 2.59703 13.1141C3.62823 14.3574 5.16206 15.6633 6.938 17.1755L6.9413 17.1782C7.56216 17.7069 8.26598 18.3062 8.99849 18.9461C9.7354 18.3049 10.4403 17.7047 11.0624 17.1752C12.8382 15.663 14.3719 14.3574 15.4031 13.1141C16.4699 11.8279 16.9457 10.6839 16.9457 9.40473C16.9457 8.19236 16.5377 7.08263 15.797 6.27983C15.0672 5.48897 14.0637 5.05348 12.9717 5.05348C12.1716 5.05348 11.437 5.30758 10.7884 5.80866C10.2104 6.25541 9.80777 6.82016 9.5717 7.21531C9.4503 7.41852 9.23662 7.53981 9 7.53981C8.76338 7.53981 8.5497 7.41852 8.4283 7.21531C8.19237 6.82016 7.78972 6.25541 7.21156 5.80866C6.56296 5.30758 5.82838 5.05348 5.02844 5.05348Z" fill="#956D84"/>
<circle opacity="0.7" cx="21" cy="8" r="8" fill="white"/>
<path d="M23.7 5.652C23.7 6.06 23.624 6.472 23.472 6.888C23.328 7.304 23.14 7.712 22.908 8.112C22.684 8.512 22.432 8.9 22.152 9.276C21.88 9.644 21.612 9.984 21.348 10.296L20.712 10.788V10.848L21.576 10.68H23.88V12H18.828V11.196C19.02 10.996 19.236 10.764 19.476 10.5C19.716 10.228 19.956 9.944 20.196 9.648C20.444 9.344 20.684 9.032 20.916 8.712C21.148 8.392 21.356 8.072 21.54 7.752C21.724 7.424 21.868 7.108 21.972 6.804C22.084 6.5 22.14 6.212 22.14 5.94C22.14 5.612 22.044 5.344 21.852 5.136C21.668 4.92 21.372 4.812 20.964 4.812C20.708 4.812 20.444 4.868 20.172 4.98C19.908 5.084 19.684 5.22 19.5 5.388L18.876 4.284C19.188 4.028 19.54 3.824 19.932 3.672C20.332 3.512 20.8 3.432 21.336 3.432C21.68 3.432 21.996 3.48 22.284 3.576C22.572 3.672 22.82 3.812 23.028 3.996C23.236 4.18 23.4 4.412 23.52 4.692C23.64 4.964 23.7 5.284 23.7 5.652Z" fill="#414141"/>
</svg>
