<svg width="15" height="15" viewBox="0 0 15 15" fill="none" xmlns="http://www.w3.org/2000/svg">
<path d="M8.9284 0H6.07128C3.07877 0 0.644135 2.43406 0.644135 5.42601V7.99975C0.644135 10.2279 2.01328 12.2303 4.07199 13.0458V14.7143C4.07199 14.8275 4.13855 14.9297 4.24195 14.9754C4.27909 14.992 4.31851 15 4.35764 15C4.42706 15 4.4959 14.9746 4.54932 14.926L6.20583 13.4258H8.9284C11.9209 13.4258 14.3555 10.9917 14.3555 7.99975V5.42601C14.3555 2.43406 11.9209 0 8.9284 0ZM13.7842 7.99975C13.7842 10.6766 11.6061 12.8544 8.9284 12.8544H6.09556C6.02472 12.8544 5.95645 12.8807 5.90389 12.9284L4.6433 14.0702V12.8479C4.6433 12.7268 4.56703 12.6188 4.45276 12.5788C2.5166 11.8941 1.21544 10.0539 1.21544 7.99975V5.42601C1.21544 2.74914 3.39384 0.571309 6.07128 0.571309H8.9284C11.6061 0.571309 13.7842 2.74914 13.7842 5.42601V7.99975Z" fill="white"/>
<path d="M11.275 8.71039L9.51941 7.57006C9.32745 7.44523 9.09892 7.40295 8.87526 7.44923C8.6513 7.49636 8.45877 7.62862 8.33394 7.82143L8.25139 7.94827C7.49155 7.69718 6.65372 7.37638 6.15211 5.9244L6.35978 5.74387C6.71628 5.43393 6.7537 4.89176 6.44377 4.53469L5.07034 2.95474C4.96693 2.83562 4.7864 2.82334 4.66728 2.92646L3.80489 3.67602C3.04848 4.33359 3.40183 5.30625 3.51809 5.62589C3.52323 5.64018 3.52952 5.65389 3.53695 5.66731C3.56694 5.72102 4.28307 6.99904 5.43969 8.17707C6.60088 9.35997 8.69729 10.4523 8.76157 10.484C9.00094 10.6394 9.27032 10.714 9.53683 10.714C10.0047 10.714 10.4635 10.4846 10.7372 10.0641L11.3593 9.10602C11.445 8.97319 11.4073 8.79637 11.275 8.71039ZM10.2578 9.75274C10.0004 10.1492 9.46856 10.2618 9.04865 9.99098C9.0278 9.98012 6.94509 8.89549 5.84732 7.77716C4.82125 6.73195 4.13996 5.57076 4.04712 5.4088C3.82089 4.77436 3.86088 4.38444 4.17967 4.10736L4.82668 3.54519L6.01271 4.90947C6.11812 5.03059 6.10584 5.2077 5.98529 5.31253L5.63479 5.61704C5.54938 5.69131 5.51567 5.80871 5.5491 5.91669C6.14668 7.85857 7.30873 8.23992 8.15712 8.51843L8.28081 8.55928C8.4045 8.60099 8.5399 8.55328 8.61074 8.44416L8.81327 8.13223C8.85498 8.06767 8.91896 8.02396 8.99323 8.00825C9.06779 7.99226 9.14377 8.00711 9.20833 8.0491L10.7246 9.03375L10.2578 9.75274Z" fill="white"/>
<path d="M8.15195 4.64095C7.99998 4.59724 7.84202 4.68551 7.79888 4.83748C7.75575 4.98916 7.84373 5.14713 7.99541 5.19026C8.42104 5.31138 8.76011 5.65102 8.88008 6.07693C8.9155 6.20262 9.03005 6.28518 9.15488 6.28518C9.18059 6.28518 9.20658 6.28175 9.23258 6.27461C9.38426 6.23176 9.47281 6.07408 9.42997 5.92211C9.25657 5.30681 8.76668 4.81577 8.15195 4.64095Z" fill="white"/>
<path d="M10.3258 6.34696C10.3515 6.34696 10.3775 6.34353 10.4035 6.33639C10.5554 6.29354 10.6437 6.13558 10.6009 5.98389C10.2638 4.789 9.31285 3.83606 8.11881 3.49613C7.96713 3.45242 7.80916 3.54126 7.76603 3.69294C7.7229 3.84463 7.81088 4.00259 7.96256 4.04573C8.96721 4.33138 9.76732 5.13378 10.051 6.139C10.0867 6.26469 10.2009 6.34696 10.3258 6.34696Z" fill="white"/>
<path d="M7.9957 2.16585C7.84373 2.12214 7.68577 2.21041 7.64263 2.36266C7.5995 2.51435 7.68748 2.67231 7.83916 2.71545C9.54138 3.19963 10.8974 4.55878 11.3779 6.26213C11.4133 6.38782 11.5278 6.47038 11.6527 6.47038C11.6784 6.47038 11.7044 6.46695 11.7303 6.45981C11.882 6.41696 11.9706 6.25899 11.9277 6.10731C11.3938 4.21428 9.88731 2.70431 7.9957 2.16585Z" fill="white"/>
</svg>
