<svg width="15" height="16" viewBox="0 0 15 16" fill="none" xmlns="http://www.w3.org/2000/svg">
<path d="M7.64392 0.778518C4.64961 0.778518 1.8062 0.517472 0.720137 3.24916C0.271527 4.3774 0.336674 5.84265 0.336674 7.94072C0.336674 9.78178 0.276475 11.5121 0.720137 12.6315C1.80373 15.3648 4.67022 15.1029 7.64227 15.1029C10.5096 15.1029 13.466 15.3955 14.5652 12.6315C15.0147 11.4919 14.9487 10.0485 14.9487 7.94072C14.9487 5.14276 15.1062 3.33645 13.7216 1.9803C12.3197 0.606373 10.4238 0.778518 7.64062 0.778518H7.64392ZM7.45837 1.9354C13 1.9354 14.1875 1.54747 13.7917 10.8579C13.3959 13.9613 10.788 14.1251 7.64392 14.1251C2.13691 14.1251 1.36271 13.5734 1.2426 7.94072C1.10627 1.54747 3.1042 1.9354 7.45837 1.9354ZM11.5445 3.25805C11.0605 3.25805 10.6679 3.64275 10.6679 4.11716C10.6679 4.59157 11.0605 4.97627 11.5445 4.97627C12.0286 4.97627 12.4211 4.59157 12.4211 4.11716C12.4211 3.64275 12.0286 3.25805 11.5445 3.25805ZM7.64392 4.26264C5.57157 4.26264 3.89175 5.90973 3.89175 7.94072C3.89175 9.97171 5.57157 11.618 7.64392 11.618C9.71627 11.618 11.3953 9.97171 11.3953 7.94072C11.3953 5.90973 9.71627 4.26264 7.64392 4.26264ZM7.64392 5.55332C10.8642 5.55332 10.8683 10.3281 7.64392 10.3281C4.42448 10.3281 4.41953 5.55332 7.64392 5.55332Z" fill="white"/>
</svg>
