<svg width="14" height="12" viewBox="0 0 14 12" fill="none" xmlns="http://www.w3.org/2000/svg">
<path d="M13.7838 0.390686C13.6128 0.181549 13.3567 0.0664062 13.0625 0.0664062C12.9026 0.0664062 12.7332 0.100052 12.5591 0.166595L0.708396 4.69038C0.0794897 4.93039 -0.00521178 5.29056 0.000235596 5.48389C0.00568298 5.67722 0.110679 6.03204 0.752189 6.23616C0.756034 6.23734 0.759879 6.23851 0.763724 6.23958L3.22188 6.94304L4.55126 10.7445C4.73252 11.2627 5.13937 11.5846 5.61318 11.5846C5.91193 11.5846 6.20577 11.4595 6.46297 11.2228L7.98344 9.82278L10.1888 11.5985C10.189 11.5987 10.1893 11.5988 10.1895 11.5991L10.2105 11.6159C10.2124 11.6174 10.2144 11.619 10.2163 11.6205C10.4615 11.8107 10.729 11.9111 10.9904 11.9112H10.9905C11.5012 11.9112 11.9078 11.5332 12.0263 10.9483L13.968 1.36043C14.046 0.975586 13.9806 0.631226 13.7838 0.390686ZM4.04423 6.80942L8.78677 4.38661L5.83375 7.52441C5.78536 7.57579 5.75107 7.6387 5.7342 7.70717L5.16479 10.0137L4.04423 6.80942ZM5.90723 10.6193C5.88758 10.6373 5.86782 10.6535 5.84806 10.6683L6.37635 8.52866L7.33733 9.30251L5.90723 10.6193ZM13.164 1.19754L11.2223 10.7855C11.2036 10.8772 11.1439 11.0907 10.9904 11.0907C10.9146 11.0907 10.8193 11.0494 10.7218 10.9743L8.2228 8.9622C8.22248 8.96188 8.22205 8.96156 8.22163 8.96135L6.7347 7.76399L11.0051 3.22632C11.1419 3.08105 11.1542 2.85857 11.0345 2.69899C10.9147 2.53941 10.6975 2.48921 10.5199 2.58L3.49618 6.16823L1.00458 5.45537L12.8517 0.932968C12.9518 0.89473 13.0216 0.886719 13.0625 0.886719C13.0876 0.886719 13.1323 0.889709 13.1488 0.91011C13.1706 0.936707 13.1984 1.02739 13.164 1.19754Z" fill="white"/>
</svg>
