<svg width="9" height="13" viewBox="0 0 9 13" fill="none" xmlns="http://www.w3.org/2000/svg">
<path d="M5.38277 12.8503H3.35432C3.0155 12.8503 2.73989 12.5746 2.73989 12.2358V7.66055H1.55645C1.21763 7.66055 0.942017 7.38484 0.942017 7.04612V5.08561C0.942017 4.74679 1.21763 4.47118 1.55645 4.47118H2.73989V3.48942C2.73989 2.51598 3.04556 1.68778 3.62375 1.09451C4.20455 0.49854 5.01622 0.183594 5.97101 0.183594L7.51801 0.186106C7.85625 0.186686 8.13138 0.462301 8.13138 0.800537V2.62083C8.13138 2.95965 7.85586 3.23526 7.51714 3.23526L6.47557 3.23565C6.15791 3.23565 6.07703 3.29933 6.05973 3.31885C6.03122 3.35123 5.9973 3.44274 5.9973 3.69546V4.47108H7.43886C7.54739 4.47108 7.65253 4.49785 7.74289 4.54829C7.93781 4.65721 8.059 4.86314 8.059 5.0857L8.05822 7.04622C8.05822 7.38484 7.78261 7.66046 7.44379 7.66046H5.9973V12.2358C5.9973 12.5746 5.72159 12.8503 5.38277 12.8503ZM3.48246 12.1077H5.25463V7.32812C5.25463 7.10188 5.43873 6.91788 5.66486 6.91788H7.31565L7.31633 5.21375H5.66476C5.43863 5.21375 5.25463 5.02975 5.25463 4.80352V3.69546C5.25463 3.40534 5.2841 3.07542 5.50309 2.82744C5.76769 2.52767 6.18468 2.49307 6.47537 2.49307L7.3888 2.49269V0.928487L5.97043 0.926168C4.436 0.926168 3.48246 1.90841 3.48246 3.48942V4.80352C3.48246 5.02965 3.29846 5.21375 3.07233 5.21375H1.68459V6.91788H3.07233C3.29846 6.91788 3.48246 7.10188 3.48246 7.32812V12.1077ZM7.51656 0.92868H7.51666H7.51656Z" fill="white"/>
</svg>
