<svg width="33" height="30" viewBox="0 0 33 30" fill="none" xmlns="http://www.w3.org/2000/svg">
<path d="M16.5 29.0654C16.0302 29.0654 15.5772 28.9 15.2243 28.5994C13.8911 27.4661 12.6059 26.4011 11.4719 25.4617L11.4661 25.4568C8.14147 22.7024 5.27054 20.3237 3.273 17.9805C1.04006 15.361 0 12.8773 0 10.1641C0 7.52789 0.929785 5.09586 2.6179 3.31565C4.32616 1.51439 6.67013 0.522339 9.21879 0.522339C11.1237 0.522339 12.8682 1.10783 14.4037 2.26241C15.1787 2.8452 15.8811 3.55846 16.5 4.39044C17.1191 3.55846 17.8213 2.8452 18.5965 2.26241C20.132 1.10783 21.8765 0.522339 23.7814 0.522339C26.3298 0.522339 28.674 1.51439 30.3823 3.31565C32.0704 5.09586 32.9999 7.52789 32.9999 10.1641C32.9999 12.8773 31.9601 15.361 29.7272 17.9803C27.7296 20.3237 24.859 22.7022 21.5349 25.4563C20.3989 26.3972 19.1116 27.4639 17.7754 28.5999C17.4227 28.9 16.9695 29.0654 16.5 29.0654ZM9.21879 2.40168C7.21647 2.40168 5.37704 3.17858 4.03889 4.58943C2.68084 6.02158 1.93283 8.00128 1.93283 10.1641C1.93283 12.4461 2.80522 14.4869 4.76121 16.7814C6.65175 18.9993 9.46377 21.329 12.7196 24.0266L12.7257 24.0315C13.8639 24.9746 15.1543 26.0437 16.4972 27.1854C17.8482 26.0415 19.1405 24.9707 20.281 24.0261C23.5367 21.3285 26.3484 18.9993 28.239 16.7814C30.1947 14.4869 31.0671 12.4461 31.0671 10.1641C31.0671 8.00128 30.3191 6.02158 28.9611 4.58943C27.6231 3.17858 25.7835 2.40168 23.7814 2.40168C22.3146 2.40168 20.9679 2.85499 19.7788 3.74889C18.7191 4.54586 17.9809 5.55334 17.5481 6.25827C17.3255 6.62078 16.9338 6.83715 16.5 6.83715C16.0662 6.83715 15.6744 6.62078 15.4519 6.25827C15.0193 5.55334 14.2811 4.54586 13.2212 3.74889C12.0321 2.85499 10.6854 2.40168 9.21879 2.40168Z" fill="#956D84"/>
</svg>
