<svg width="19" height="20" viewBox="0 0 19 20" fill="none" xmlns="http://www.w3.org/2000/svg">
<path d="M18.0071 18.8219L12.744 13.5589C13.7423 12.3265 14.3432 10.7597 14.3432 9.05392C14.3432 5.09952 11.126 1.88232 7.17156 1.88232C3.21716 1.88232 0 5.09952 0 9.05392C0 13.0083 3.2172 16.2255 7.1716 16.2255C8.87742 16.2255 10.4442 15.6246 11.6766 14.6264L16.9396 19.8894C17.0871 20.0368 17.326 20.0368 17.4735 19.8894L18.0071 19.3557C18.1545 19.2083 18.1545 18.9693 18.0071 18.8219ZM7.1716 14.7157C4.04952 14.7157 1.50982 12.176 1.50982 9.05392C1.50982 5.93184 4.04952 3.39214 7.1716 3.39214C10.2937 3.39214 12.8334 5.93184 12.8334 9.05392C12.8334 12.176 10.2937 14.7157 7.1716 14.7157Z" fill="#956D84"/>
</svg>
