<svg width="145" height="28" viewBox="0 0 145 28" fill="none" xmlns="http://www.w3.org/2000/svg">
<circle cx="93" cy="13.5417" r="13.4583" fill="#956D84"/>
<g clip-path="url(#clip0_95_5660)">
<path d="M97.7838 7.39069C97.6128 7.18155 97.3567 7.06641 97.0625 7.06641C96.9026 7.06641 96.7332 7.10005 96.5591 7.1666L84.7084 11.6904C84.0795 11.9304 83.9948 12.2906 84.0002 12.4839C84.0057 12.6772 84.1107 13.032 84.7522 13.2362C84.756 13.2373 84.7599 13.2385 84.7637 13.2396L87.2219 13.943L88.5513 17.7445C88.7325 18.2627 89.1394 18.5846 89.6132 18.5846C89.9119 18.5846 90.2058 18.4595 90.463 18.2228L91.9834 16.8228L94.1888 18.5985C94.189 18.5987 94.1893 18.5988 94.1895 18.5991L94.2105 18.6159C94.2124 18.6174 94.2144 18.619 94.2163 18.6205C94.4615 18.8107 94.729 18.9111 94.9904 18.9112H94.9905C95.5012 18.9112 95.9078 18.5332 96.0263 17.9483L97.968 8.36043C98.046 7.97559 97.9806 7.63123 97.7838 7.39069ZM88.0442 13.8094L92.7868 11.3866L89.8337 14.5244C89.7854 14.5758 89.7511 14.6387 89.7342 14.7072L89.1648 17.0137L88.0442 13.8094ZM89.9072 17.6193C89.8876 17.6373 89.8678 17.6535 89.8481 17.6683L90.3763 15.5287L91.3373 16.3025L89.9072 17.6193ZM97.164 8.19754L95.2223 17.7855C95.2036 17.8772 95.1439 18.0907 94.9904 18.0907C94.9146 18.0907 94.8193 18.0494 94.7218 17.9743L92.2228 15.9622C92.2225 15.9619 92.2221 15.9616 92.2216 15.9613L90.7347 14.764L95.0051 10.2263C95.1419 10.0811 95.1542 9.85857 95.0345 9.69899C94.9147 9.53941 94.6975 9.48921 94.5199 9.58L87.4962 13.1682L85.0046 12.4554L96.8517 7.93297C96.9518 7.89473 97.0216 7.88672 97.0625 7.88672C97.0876 7.88672 97.1323 7.88971 97.1488 7.91011C97.1706 7.93671 97.1984 8.02739 97.164 8.19754Z" fill="white"/>
</g>
<circle cx="53.4583" cy="13.5417" r="13.4583" fill="#956D84"/>
<path d="M53.6439 5.77852C50.6496 5.77852 47.8062 5.51747 46.7201 8.24916C46.2715 9.3774 46.3367 10.8427 46.3367 12.9407C46.3367 14.7818 46.2765 16.5121 46.7201 17.6315C47.8037 20.3648 50.6702 20.1029 53.6423 20.1029C56.5096 20.1029 59.466 20.3955 60.5652 17.6315C61.0147 16.4919 60.9487 15.0485 60.9487 12.9407C60.9487 10.1428 61.1062 8.33645 59.7216 6.9803C58.3197 5.60637 56.4238 5.77852 53.6406 5.77852H53.6439ZM53.4584 6.9354C59 6.9354 60.1875 6.54747 59.7917 15.8579C59.3959 18.9613 56.788 19.1251 53.6439 19.1251C48.1369 19.1251 47.3627 18.5734 47.2426 12.9407C47.1063 6.54747 49.1042 6.9354 53.4584 6.9354ZM57.5445 8.25805C57.0605 8.25805 56.6679 8.64275 56.6679 9.11716C56.6679 9.59157 57.0605 9.97627 57.5445 9.97627C58.0286 9.97627 58.4211 9.59157 58.4211 9.11716C58.4211 8.64275 58.0286 8.25805 57.5445 8.25805ZM53.6439 9.26264C51.5716 9.26264 49.8918 10.9097 49.8918 12.9407C49.8918 14.9717 51.5716 16.618 53.6439 16.618C55.7163 16.618 57.3953 14.9717 57.3953 12.9407C57.3953 10.9097 55.7163 9.26264 53.6439 9.26264ZM53.6439 10.5533C56.8642 10.5533 56.8683 15.3281 53.6439 15.3281C50.4245 15.3281 50.4195 10.5533 53.6439 10.5533Z" fill="white"/>
<circle cx="13.4583" cy="14.4583" r="13.4583" fill="#956D84"/>
<g clip-path="url(#clip1_95_5660)">
<path d="M14.9284 7H12.0713C9.07877 7 6.64413 9.43406 6.64413 12.426V14.9998C6.64413 17.2279 8.01328 19.2303 10.072 20.0458V21.7143C10.072 21.8275 10.1385 21.9297 10.242 21.9754C10.2791 21.992 10.3185 22 10.3576 22C10.4271 22 10.4959 21.9746 10.5493 21.926L12.2058 20.4258H14.9284C17.9209 20.4258 20.3555 17.9917 20.3555 14.9998V12.426C20.3555 9.43406 17.9209 7 14.9284 7ZM19.7842 14.9998C19.7842 17.6766 17.6061 19.8544 14.9284 19.8544H12.0956C12.0247 19.8544 11.9564 19.8807 11.9039 19.9284L10.6433 21.0702V19.8479C10.6433 19.7268 10.567 19.6188 10.4528 19.5788C8.5166 18.8941 7.21544 17.0539 7.21544 14.9998V12.426C7.21544 9.74914 9.39384 7.57131 12.0713 7.57131H14.9284C17.6061 7.57131 19.7842 9.74914 19.7842 12.426V14.9998Z" fill="white"/>
<path d="M17.275 15.7104L15.5194 14.5701C15.3274 14.4452 15.0989 14.403 14.8753 14.4492C14.6513 14.4964 14.4588 14.6286 14.3339 14.8214L14.2514 14.9483C13.4915 14.6972 12.6537 14.3764 12.1521 12.9244L12.3598 12.7439C12.7163 12.4339 12.7537 11.8918 12.4438 11.5347L11.0703 9.95474C10.9669 9.83562 10.7864 9.82334 10.6673 9.92646L9.80489 10.676C9.04848 11.3336 9.40183 12.3062 9.51809 12.6259C9.52323 12.6402 9.52952 12.6539 9.53695 12.6673C9.56694 12.721 10.2831 13.999 11.4397 15.1771C12.6009 16.36 14.6973 17.4523 14.7616 17.484C15.0009 17.6394 15.2703 17.714 15.5368 17.714C16.0047 17.714 16.4635 17.4846 16.7372 17.0641L17.3593 16.106C17.445 15.9732 17.4073 15.7964 17.275 15.7104ZM16.2578 16.7527C16.0004 17.1492 15.4686 17.2618 15.0486 16.991C15.0278 16.9801 12.9451 15.8955 11.8473 14.7772C10.8212 13.7319 10.14 12.5708 10.0471 12.4088C9.82089 11.7744 9.86088 11.3844 10.1797 11.1074L10.8267 10.5452L12.0127 11.9095C12.1181 12.0306 12.1058 12.2077 11.9853 12.3125L11.6348 12.617C11.5494 12.6913 11.5157 12.8087 11.5491 12.9167C12.1467 14.8586 13.3087 15.2399 14.1571 15.5184L14.2808 15.5593C14.4045 15.601 14.5399 15.5533 14.6107 15.4442L14.8133 15.1322C14.855 15.0677 14.919 15.024 14.9932 15.0083C15.0678 14.9923 15.1438 15.0071 15.2083 15.0491L16.7246 16.0338L16.2578 16.7527Z" fill="white"/>
<path d="M14.1519 11.6409C14 11.5972 13.842 11.6855 13.7989 11.8375C13.7557 11.9892 13.8437 12.1471 13.9954 12.1903C14.421 12.3114 14.7601 12.651 14.8801 13.0769C14.9155 13.2026 15.0301 13.2852 15.1549 13.2852C15.1806 13.2852 15.2066 13.2817 15.2326 13.2746C15.3843 13.2318 15.4728 13.0741 15.43 12.9221C15.2566 12.3068 14.7667 11.8158 14.1519 11.6409Z" fill="white"/>
<path d="M16.3258 13.347C16.3515 13.347 16.3775 13.3435 16.4035 13.3364C16.5554 13.2935 16.6437 13.1356 16.6009 12.9839C16.2638 11.789 15.3128 10.8361 14.1188 10.4961C13.9671 10.4524 13.8092 10.5413 13.766 10.6929C13.7229 10.8446 13.8109 11.0026 13.9626 11.0457C14.9672 11.3314 15.7673 12.1338 16.051 13.139C16.0867 13.2647 16.2009 13.347 16.3258 13.347Z" fill="white"/>
<path d="M13.9957 9.16585C13.8437 9.12214 13.6858 9.21041 13.6426 9.36266C13.5995 9.51435 13.6875 9.67231 13.8392 9.71545C15.5414 10.1996 16.8974 11.5588 17.3779 13.2621C17.4133 13.3878 17.5278 13.4704 17.6527 13.4704C17.6784 13.4704 17.7044 13.4669 17.7303 13.4598C17.882 13.417 17.9706 13.259 17.9277 13.1073C17.3938 11.2143 15.8873 9.70431 13.9957 9.16585Z" fill="white"/>
</g>
<circle cx="131.542" cy="13.5417" r="13.4583" fill="#956D84"/>
<g clip-path="url(#clip2_95_5660)">
<path d="M132.383 19.8503H130.354C130.016 19.8503 129.74 19.5746 129.74 19.2358V14.6606H128.556C128.218 14.6606 127.942 14.3848 127.942 14.0461V12.0856C127.942 11.7468 128.218 11.4712 128.556 11.4712H129.74V10.4894C129.74 9.51598 130.046 8.68778 130.624 8.09451C131.205 7.49854 132.016 7.18359 132.971 7.18359L134.518 7.18611C134.856 7.18669 135.131 7.4623 135.131 7.80054V9.62083C135.131 9.95965 134.856 10.2353 134.517 10.2353L133.476 10.2356C133.158 10.2356 133.077 10.2993 133.06 10.3189C133.031 10.3512 132.997 10.4427 132.997 10.6955V11.4711H134.439C134.547 11.4711 134.653 11.4978 134.743 11.5483C134.938 11.6572 135.059 11.8631 135.059 12.0857L135.058 14.0462C135.058 14.3848 134.783 14.6605 134.444 14.6605H132.997V19.2358C132.997 19.5746 132.722 19.8503 132.383 19.8503ZM130.482 19.1077H132.255V14.3281C132.255 14.1019 132.439 13.9179 132.665 13.9179H134.316L134.316 12.2138H132.665C132.439 12.2138 132.255 12.0297 132.255 11.8035V10.6955C132.255 10.4053 132.284 10.0754 132.503 9.82744C132.768 9.52767 133.185 9.49307 133.475 9.49307L134.389 9.49269V7.92849L132.97 7.92617C131.436 7.92617 130.482 8.90841 130.482 10.4894V11.8035C130.482 12.0297 130.298 12.2138 130.072 12.2138H128.685V13.9179H130.072C130.298 13.9179 130.482 14.1019 130.482 14.3281V19.1077ZM134.517 7.92868H134.517H134.517Z" fill="white"/>
</g>
<defs>
<clipPath id="clip0_95_5660">
<rect width="14" height="14" fill="white" transform="translate(84 6)"/>
</clipPath>
<clipPath id="clip1_95_5660">
<rect width="15" height="15" fill="white" transform="translate(6 7)"/>
</clipPath>
<clipPath id="clip2_95_5660">
<rect width="12.6419" height="12.6667" fill="white" transform="translate(125.208 7.20837)"/>
</clipPath>
</defs>
</svg>
